<svg id="logo" data-name="logo" xmlns="http://www.w3.org/2000/svg" viewBox="0 0 156 20"><defs><style>.cls-1{fill:#ee7800;}</style></defs><path class="cls-1" d="M84.07,10.64c2.33,0,2.56-1.27,2.62-1.84H78.14V2.27h6.42c2.33,0,2.57-1.27,2.62-1.86H75.81v19h2.33V10.64Z"/><path class="cls-1" d="M66.83,2.27c2.33,0,2.56-1.3,2.62-1.86H58.09v19H67.3c2.34,0,2.57-1.3,2.63-1.86H60.39V10.25h5.92c2.33,0,2.56-1.26,2.62-1.83H60.39V2.27Z"/><path class="cls-1" d="M152.65,2.27c2.34,0,2.57-1.3,2.63-1.86H143.91v19h9.22c2.34,0,2.57-1.3,2.63-1.86h-9.54V10.25h5.91c2.34,0,2.57-1.26,2.63-1.83h-8.54V2.27Z"/><path class="cls-1" d="M28.88,2.27c2.34,0,2.57-1.3,2.63-1.86H20.14v19h9.22c2.34,0,2.57-1.3,2.63-1.86H22.45V10.25h5.92C30.7,10.25,30.93,9,31,8.42H22.45V2.27Z"/><path class="cls-1" d="M111.71,17.38a5.11,5.11,0,0,0,1.74-1.75,8.13,8.13,0,0,0,.94-2.66,14.24,14.24,0,0,0,.24-2.7,17.13,17.13,0,0,0-.28-3.38,8.48,8.48,0,0,0-1-2.61,5,5,0,0,0-1.76-1.73,4.58,4.58,0,0,0-2.5-.65,4.78,4.78,0,0,0-2.5.65,5,5,0,0,0-1.79,1.78,8.79,8.79,0,0,0-1,2.56,17.3,17.3,0,0,0-.29,3.38,14.8,14.8,0,0,0,.26,2.7,8.26,8.26,0,0,0,1,2.77A5,5,0,0,0,109.1,18a4.79,4.79,0,0,0,2.61-.65m5.41.71c2.17,0,2.58,1.24,2.64,1.82H109.13a8.19,8.19,0,0,1-3.72-.86,7,7,0,0,1-2.35-2.17,10.24,10.24,0,0,1-1.42-3.13,13.3,13.3,0,0,1-.47-3.48,18.22,18.22,0,0,1,.47-4.08c1-3.82,3.87-6.19,7.49-6.19s6.46,2.37,7.42,6.19a18.72,18.72,0,0,1,.51,4.08,13,13,0,0,1-.55,3.81,8.88,8.88,0,0,1-1.38,2.77,4.85,4.85,0,0,1-1.32,1.24ZM11.63,13.83a3.29,3.29,0,0,0-1-2.6,3.8,3.8,0,0,0-2.85-1H5c.07-.56.3-1.79,2.63-1.79h.19a3.82,3.82,0,0,0,1.46-.16,2.82,2.82,0,0,0,1-.62,2.38,2.38,0,0,0,.6-.86,3.71,3.71,0,0,0,.19-1.16c0-2.58-1.69-3.35-4.23-3.35H2.55V17.56H7.18c2.84,0,4.45-1.24,4.45-3.73m-.71-4.58A4.5,4.5,0,0,1,13,10.73a4.94,4.94,0,0,1,1,3.15c0,3.6-2.56,5.52-6.24,5.52H.24V.41H7.31c2.7,0,5.66,1,6,4.47a4.37,4.37,0,0,1-1.39,3.69A3.75,3.75,0,0,1,10.92,9.25ZM92.65,19.4H95V.41H92.65ZM134.8.41v12a12.06,12.06,0,0,1-.29,2.88,3.65,3.65,0,0,1-.78,1.59,3.38,3.38,0,0,1-1.37,1,5.31,5.31,0,0,1-1.89.31,5.18,5.18,0,0,1-1.86-.31,3.2,3.2,0,0,1-1.33-1,4,4,0,0,1-.84-1.59,13.26,13.26,0,0,1-.28-2.88V.41h-2.34V12.76a11.87,11.87,0,0,0,.33,2.77,6.69,6.69,0,0,0,1.07,2.32,5.41,5.41,0,0,0,1.87,1.58,10.34,10.34,0,0,0,6.77,0,5.36,5.36,0,0,0,1.88-1.58,6.87,6.87,0,0,0,1.07-2.32,12,12,0,0,0,.33-2.77V.41ZM51.25.41v19H48.83L39.91,3.78V19.4H37.75V.41h2.41S47.94,14.12,49,16V.41Z"/></svg>