<svg id="logo" data-name="logo" xmlns="http://www.w3.org/2000/svg" viewBox="0 0 142 142"><defs><style>.cls-1{fill:#fff;}</style></defs><circle class="cls-1" cx="72.18" cy="135.76" r="1.9"/><path class="cls-1" d="M52.63,40.64a.35.35,0,0,0,.48,0,.35.35,0,0,0,0-.48,3.89,3.89,0,0,1-.62-4.49,4.66,4.66,0,0,1,4.38-2.86c1.48.09,3,1.17,4.41,3a3.66,3.66,0,0,0-1.88.21,3.74,3.74,0,0,0-2.57,3,.34.34,0,0,0,.28.37.34.34,0,0,0,.4-.25,2,2,0,0,1,1.91-1.29,4.56,4.56,0,0,1,4.42,2.81c1.87,5.13,2.29,11.68-.34,16.45a.34.34,0,0,0,.12.46.41.41,0,0,0,.18,0,.35.35,0,0,0,.29-.15,24.57,24.57,0,0,0,3.09-20.83,6.61,6.61,0,0,1,1.26-6.47A4.47,4.47,0,0,1,73,29c1.72.46,2.86,1.39,3.12,2.57a1.88,1.88,0,0,1-.54,1.86,1.19,1.19,0,0,1-1.26.15A3.27,3.27,0,0,0,72,33.35a2,2,0,0,0-1.2,1,2.28,2.28,0,0,0-.21,1.58,2.79,2.79,0,0,0,1.66,1.94,4.48,4.48,0,0,0,5.08-.76c2.2-2.29,2.69-4.53,1.51-6.86s-4.57-3.4-6.49-3.41A8.82,8.82,0,0,0,64,31.52c-1.74-1.26-6.35-3.91-11.11-.64a5.57,5.57,0,0,0-2.63,4.43A6.89,6.89,0,0,0,52.63,40.64Z"/><path class="cls-1" d="M78.55,87.41a19.48,19.48,0,0,0-9.87,6.52h0c-2.14,2.58-5.59,4.37-8.2,4.27a3.16,3.16,0,0,1-2.61-1.26.34.34,0,0,0-.41-.12.36.36,0,0,0-.22.38,4,4,0,0,0,2.94,3.55,3.86,3.86,0,0,0,.84.08c1.55,0,3.26-.87,5-2.5a12.9,12.9,0,0,0-.8,7.46c.57,3.78,0,5.91-.71,6.63a1.31,1.31,0,0,1-1,.44,2.06,2.06,0,0,1-1.36-.82A3,3,0,0,0,60.33,111a1.79,1.79,0,0,0-1.41.36,1.91,1.91,0,0,0-.8,1.26,3,3,0,0,0,.65,2.29,4.47,4.47,0,0,0,3.5,1.57,4.54,4.54,0,0,0,1.07-.13c2.66-.67,3.45-3.09,3.69-5.5a12.35,12.35,0,0,0,4.71,4.87A10.11,10.11,0,0,0,76.67,117a11.19,11.19,0,0,0,3.46-.57.34.34,0,0,0-.07-.67c-5.17-.59-10.19-6.85-10.75-13.4-.59-6.81,3.61-12.17,11.53-14.86a12.14,12.14,0,0,0-5,5.69,8.83,8.83,0,0,0-.15,6.76,7,7,0,0,0,6.12,3.79,4.52,4.52,0,0,0,.52,0c1.51-.13,4.2-1,5.25-5.24a.36.36,0,0,0-.18-.4.35.35,0,0,0-.43.1,4.68,4.68,0,0,1-4,1.9,4.37,4.37,0,0,1-3.43-1.7A6.2,6.2,0,0,1,79,93.46a11.33,11.33,0,0,1,4.23-6.22c6.83-1.11,10.92-4.63,12.4-10.7A14.63,14.63,0,0,0,100,82c2.2,2.08,3.57,3.73,4,6,.27,1.24.25,4.07-1,5a.33.33,0,0,0-.12.4.32.32,0,0,0,.35.23c2.13-.17,3.21-2.55,3.5-4.35A6.63,6.63,0,0,1,108,93.73,6.36,6.36,0,0,1,105.51,98a.34.34,0,0,0,.21.62h.1a6.59,6.59,0,0,0,4.43-3.51c1.3-2.87.11-6.27-.47-7.62,4-2.28,5.44-5.2,5.93-7.27a9.85,9.85,0,0,0-1.3-7.58A5.91,5.91,0,0,0,110.25,70a4.58,4.58,0,0,0-3.45.86.35.35,0,0,0-.07.45.35.35,0,0,0,.44.13,4,4,0,0,1,3.87.29,5,5,0,0,1,2.36,4,7.93,7.93,0,0,1-3.91,7.39c-2.3,1.18-5.2.55-8.85-1.91a23.3,23.3,0,0,1-2.24-2.14,7.49,7.49,0,0,0,4.27,1.53,4.57,4.57,0,0,0,1.68-.31c1.93-.79,2.56-2.86,1.68-5.54a.33.33,0,0,0-.39-.23.34.34,0,0,0-.28.35,3.45,3.45,0,0,1-2.71,3.66,5.23,5.23,0,0,1-6.73-5.79C96.09,69.58,98.58,66,101,66a2.78,2.78,0,0,1,2.42,1,2.5,2.5,0,0,1,.43,2.16,2.41,2.41,0,0,1-.68,1,1.85,1.85,0,1,0-3,1.17s0,0,.05,0l.06,0,.07,0a2.75,2.75,0,0,0,2.48.36,3.58,3.58,0,0,0,2.2-2.32,3.74,3.74,0,0,0-.64-3.3A4,4,0,0,0,101,64.68c-1.91.06-3.52,1.57-4.61,3.47A7.79,7.79,0,0,1,104,61.54a5.82,5.82,0,0,1,4.64,2.06,4.22,4.22,0,0,1,.56,3.94.35.35,0,0,0,.12.38.33.33,0,0,0,.21.07.34.34,0,0,0,.19,0,4.26,4.26,0,0,0,1.75-4.66c1-.16,3-.66,3.77-1.77a.34.34,0,0,0,0-.35c-.61-1.18-2.67-1.85-3.59-2.1.6-1.46.12-3.24-1.31-4.75a.32.32,0,0,0-.41-.07.35.35,0,0,0-.18.38,3.79,3.79,0,0,1-.79,3.44c-1.32,1.54-3.81,2.07-5.41,2.23-4.33.39-8.68,3.59-8.58,10,0,.79,0,1.63-.05,2.48a1.64,1.64,0,0,0,0,.23v0c-.41,5.59-2.77,11.81-12.81,13.06a7.78,7.78,0,0,1-5.66-2.48,2.88,2.88,0,0,1-.67-2.47c.5-2.1,3.56-1.57,3.9-1.51a.35.35,0,0,0,.38-.19.34.34,0,0,0-.08-.41,7.63,7.63,0,0,0-7.07-1.31A4.34,4.34,0,0,0,70,81.4a3.64,3.64,0,0,0,1.25,3.36A11.34,11.34,0,0,0,78.55,87.41Z"/><path class="cls-1" d="M52.57,92.3A13.06,13.06,0,0,0,52.81,85a.35.35,0,0,0-.68.11c.16,3.63-.87,6.27-3.07,7.84a9.29,9.29,0,0,1-7.54,1.2c-1.41-.55-2.82-1.18-3.32-2.33a3,3,0,0,1,.15-2.36.35.35,0,0,0-.09-.39.33.33,0,0,0-.39,0,3.82,3.82,0,0,0-1.94,4c-.87.08-2.74.37-3.45,1.3a.34.34,0,0,0,0,.35c.46,1.08,2.19,1.83,3,2.13a3.84,3.84,0,0,0,.86,4.37.41.41,0,0,0,.24.08.32.32,0,0,0,.16,0,.33.33,0,0,0,.18-.35A3.71,3.71,0,0,1,38,97.54a3.51,3.51,0,0,1,3-.87,13.94,13.94,0,0,0,6.84.11c-.22.31-.45.61-.66.94-1.61,2.64-2.72,6.81-1.57,10.16a6.77,6.77,0,0,0,4.16,4.23l.09,0,.2.08a4.73,4.73,0,0,0,1.34.2,4.57,4.57,0,0,0,1.34-9,4.48,4.48,0,0,0-3,.13,10.6,10.6,0,0,1,1.8-5.3c3.17-5.2,10.42-9.22,20.58-9.8.7,0,.66-.81-.12-.83C70.88,87.62,60.65,86.53,52.57,92.3Z"/><path class="cls-1" d="M90.41,37.15a2.25,2.25,0,0,0,0-1.88,1.5,1.5,0,0,0-1-.74,2.84,2.84,0,0,0-2.11.69,3.13,3.13,0,0,1-2.48.77,2.21,2.21,0,0,1-1.89-2.26,3.38,3.38,0,0,1,1.22-2.42c1.81-1.42,4.89-1.77,7.72.6a4.75,4.75,0,0,1,1.79,3.9A7.24,7.24,0,0,1,91,40.6c4.58-.87,9.13-.63,12,.76,5.79,2.83,6.5,7.52,5.23,11a4.36,4.36,0,0,1-3.82,3.15,4,4,0,0,1-3.77-2.15.34.34,0,0,1,.08-.41.35.35,0,0,1,.43,0,3.16,3.16,0,0,0,3.58,0,2.79,2.79,0,0,0,1-3.19c-.45-1.74-2.12-3.26-4.68-4.29a22.45,22.45,0,0,0-19,1.79l-.22.15a15.19,15.19,0,0,1,11.39,2.19c3.31,2.19,5,5,5.18,6.77a.36.36,0,0,1-.23.37.34.34,0,0,1-.4-.15,9.17,9.17,0,0,0-3-2.14,7,7,0,0,1-.94,3.71.35.35,0,0,1-.3.16.2.2,0,0,1-.11,0,.34.34,0,0,1-.23-.37c.35-2.54-3-6.43-6.86-8-2-.84-5.79-1.65-8.79,1.55a16.43,16.43,0,0,0-3.33,9.82,10.37,10.37,0,0,1,3.9-5.73,5.44,5.44,0,0,1,4.1-1.06.35.35,0,0,1,0,.66,5.15,5.15,0,0,0-2.37,1.76,8,8,0,0,1,3.21,1.4.36.36,0,0,1,.1.45.35.35,0,0,1-.43.16c-1.79-.63-4.65.35-6.38,2.18A4.68,4.68,0,0,0,75.3,66a8.91,8.91,0,0,0,7.54,5,.35.35,0,0,1,0,.69h0c-3.75-.16-6.48-1.6-8.12-4.3C71.93,63,73,56,75.29,51.13c1.79-3.83,5.46-7,10.36-8.94A10.69,10.69,0,0,0,90.41,37.15Z"/><path class="cls-1" d="M74.16,42.69a2.9,2.9,0,0,0-2.64-1.55.33.33,0,0,0-.31.22.32.32,0,0,0,.07.37c1,1,.91,4.34-.17,7.43a.35.35,0,0,0,.18.43l.15,0a.33.33,0,0,0,.3-.18c1.62-2.95,4.7-6.67,8-7.43a.34.34,0,0,0,0-.66C77.87,40.64,75.44,41.8,74.16,42.69Z"/><path class="cls-1" d="M83.82,66.25a2.94,2.94,0,0,0,1.69,1.39,3.06,3.06,0,0,0,.84.13,2.86,2.86,0,0,0,2.52-4.2,2.85,2.85,0,0,0-1.69-1.39,2.77,2.77,0,0,0-1.84.07A4,4,0,0,1,88.93,61a4.32,4.32,0,0,1,3.14,2.6c.77,1.85.37,4.13-1.15,6.42-3,4.57-10,4.94-15.38,3.35h0a14.16,14.16,0,0,1-5-2.82c-2.47-2.29-2.83-6.3-2.41-8.19a3.12,3.12,0,0,1,1.47-2.22.35.35,0,0,0-.21-.65,4.24,4.24,0,0,0-3.18,2.15,7.42,7.42,0,0,0-.86,4c-.72-.87-1.39-1.75-2-2.62s-1.44-1.88-2.19-2.77h0c-1.79-2.34-3.16-6.08-2.25-8a2.37,2.37,0,0,1,2.26-1.32.34.34,0,0,0,.32-.27.33.33,0,0,0-.17-.38,3.57,3.57,0,0,0-4,.19,3.36,3.36,0,0,0-1.17,2.83A8,8,0,0,1,55,48.66a2.12,2.12,0,0,1,1-1.52,1.14,1.14,0,0,1,1,0,3,3,0,0,0,2.08.26,1.81,1.81,0,0,0,1.15-.87A2.13,2.13,0,0,0,60.55,45,2.67,2.67,0,0,0,58.8,42.9a4,4,0,0,0-3.78.61,6.45,6.45,0,0,0-2.5,5.38,10.63,10.63,0,0,0,2.87,6.74,14.21,14.21,0,0,0-7.77-1.9c-1.24,0-2.42,0-3.53.08-3.31.17-5.91.3-8.11-1.93a4.46,4.46,0,0,1-1-4.51,4.64,4.64,0,0,1,3.73-3.14h0a6.33,6.33,0,0,1,4.92,1.66,4,4,0,0,1,1.09,3.59.36.36,0,0,0,.18.36.33.33,0,0,0,.17,0,.35.35,0,0,0,.22-.08,4.23,4.23,0,0,0,1-4.87c.91-.31,2.92-1.11,3.46-2.32a.34.34,0,0,0,0-.35c-.79-1.07-2.92-1.43-3.87-1.53.38-1.54-.36-3.23-2-4.51a.33.33,0,0,0-.42,0,.34.34,0,0,0-.12.4,3.52,3.52,0,0,1-.21,3.16A7.43,7.43,0,0,1,38.5,43h0a5.88,5.88,0,0,0-4.73,4,5.72,5.72,0,0,0,1.31,5.8c2.28,2.31,5,2.47,7.86,2.36l-.28.16c-3.71,2.26-6,6.8-5.3,10.55.56,3.1,1.76,5.34,3.46,6.49a5.29,5.29,0,0,0,4.15.75l.06,0a3.11,3.11,0,0,0,1-.33,3.3,3.3,0,1,0-4.56-4.25l-.25-.22c-1.12-1.22-1.43-3.73-.83-6.56a7.85,7.85,0,0,1,6-5.7c4.32-1.07,9.13.79,12.85,5l.86,1a53.16,53.16,0,0,0,8.51,8.52A12.43,12.43,0,0,0,59.47,73,7.48,7.48,0,0,0,57,81.47a4.65,4.65,0,0,0,3.6,3.12l.4,0a3,3,0,0,0,1.88-.67,1.85,1.85,0,0,0,.65-1.33,1.81,1.81,0,0,0-.42-1.39,3,3,0,0,0-1.85-1c-1-.16-1.41-.76-1.33-1.94A6.88,6.88,0,0,1,63.1,73.4a7.84,7.84,0,0,1,5-1.5c-1.29.69-3.44,2.1-3.86,4a2.83,2.83,0,0,0,.31,2.23,3.12,3.12,0,0,0,1.86,1.32.34.34,0,0,0,.31-.59,1.82,1.82,0,0,1-.51-1.28,2.06,2.06,0,0,1,.58-1.4c1.27-1.39,4.72-2.69,8-1.68l.07,0a22.12,22.12,0,0,0,6.44,1A17.79,17.79,0,0,0,85.45,75c-1.65,1.42-2.42,3.34-1.89,4.89.43,1.26,1.62,2,3.3,2l.44,0a.34.34,0,0,0,.32-.3.33.33,0,0,0-.24-.37,2.35,2.35,0,0,1-1.76-2.08,6,6,0,0,1,2.8-5.19A9.7,9.7,0,0,0,92,70.75c1.76-2.66,2.2-5.36,1.26-7.62a5.6,5.6,0,0,0-4.08-3.36,5.23,5.23,0,0,0-5.07,2A4.06,4.06,0,0,0,83.82,66.25Z"/><path class="cls-1" d="M33.06,86.59c2.16-2,5.28-3,6.94-2.68,4.47.82,7.57.48,11.14-3.62a15.65,15.65,0,0,0,3.11-11.2,3.81,3.81,0,0,0,1.36.69,4.35,4.35,0,0,0,1.11.15,3.57,3.57,0,0,0,2.51-1,3.65,3.65,0,0,0,1-3.5.35.35,0,0,0-.32-.27.35.35,0,0,0-.35.24,2.46,2.46,0,0,1-2.07,1.93,5.24,5.24,0,0,1-4.21-2,9.92,9.92,0,0,0-5.48-5.2.34.34,0,0,0-.44.18.35.35,0,0,0,.15.45,9.16,9.16,0,0,1,4.63,5.88,12.36,12.36,0,0,1-1.36,9.44,9.36,9.36,0,0,1-6.43,4.47,9,9,0,0,1-7.07-1.79c-4.63-3.76-5-8.69-4.31-9.93a.34.34,0,0,0-.47-.46,4.18,4.18,0,0,0-2,2.75,9.92,9.92,0,0,0,.83,6.52c-2.3-1.9-5-6.25-3.72-10.83,1.05-3.46,3.47-4.34,5.41-5.06,1.16-.42,2.17-.79,2.5-1.66a1.88,1.88,0,0,0-.17-1.9,2.12,2.12,0,0,0-2-.62c-4.7.89-7.1,6.4-7.39,11.46s1.4,11.26,7,13.39c-1.38,1.2-5,4.92-2.55,9.28a.35.35,0,0,0,.3.18.22.22,0,0,0,.11,0,.35.35,0,0,0,.24-.37A5.84,5.84,0,0,1,33.06,86.59Z"/><path class="cls-1" d="M85.88,108.68a2.21,2.21,0,0,0,.56,1.79,2,2,0,0,0,1.64-.08c6.4-2.79,5.34-9.68,3.9-17.35,0-.16,0-.3,0-.46a3.47,3.47,0,0,1-2.78,2H89a3.09,3.09,0,0,1-2.81-2,.35.35,0,0,1,.55-.4,3,3,0,0,0,2.87.18,3.94,3.94,0,0,0,2.29-2.9,9.19,9.19,0,0,1,4-6.58.34.34,0,0,1,.41.55,7.14,7.14,0,0,0-3,6.52,1.88,1.88,0,0,0,1.92,1.8c1.39,0,3.22-1.59,3.61-3.74a.35.35,0,0,1,.34-.28h0a.35.35,0,0,1,.34.29,7.21,7.21,0,0,1,0,2.71,4.37,4.37,0,0,0,1.53-.66.35.35,0,0,1,.41,0,.35.35,0,0,1,.09.4,6.39,6.39,0,0,1-5.09,3.08h-.11a3.68,3.68,0,0,1-2.69-1.31c.28,1.33.71,2.81,1.22,4.48a24.61,24.61,0,0,1,1.06,5.48,4.22,4.22,0,0,0,2.2,2.64,2.92,2.92,0,0,0,2.76-.27,3.31,3.31,0,0,0,1.31-4.18,1.9,1.9,0,0,1-1.7,1.11,1.76,1.76,0,0,1-.55-.09,1.89,1.89,0,0,1-1.26-2.37,1.86,1.86,0,0,1,.92-1.12,1.9,1.9,0,0,1,1.44-.13l.11,0a3.84,3.84,0,0,1,2.55,3.25,4.55,4.55,0,0,1-2.16,4.58,4.43,4.43,0,0,1-2.33.69,4.09,4.09,0,0,1-1.6-.33,4.94,4.94,0,0,1-1.73-1.3c-.33,3.27-1.6,6-4.66,7.8a8.61,8.61,0,0,1-7.09.93A5.23,5.23,0,0,1,80.81,109a3.05,3.05,0,0,1,.82-2.44,2.73,2.73,0,0,1,1.76-.71C84.85,105.72,85.87,106.79,85.88,108.68Z"/><path class="cls-1" d="M132.49,132.09h2.1a1.93,1.93,0,0,1,1.36.47,1.44,1.44,0,0,1,.39,1h0a1.4,1.4,0,0,1-1.11,1.43l1.27,1.79h-1l-1.17-1.64h-1v1.64h-.83Zm2,2.34c.59,0,1-.31,1-.79h0c0-.51-.36-.78-1-.78h-1.2v1.58Z"/><path class="cls-1" d="M134.31,129.23a5.22,5.22,0,1,1-5.22,5.22,5.22,5.22,0,0,1,5.22-5.22m0-.82a6,6,0,1,0,6,6,6,6,0,0,0-6-6Z"/><path class="cls-1" d="M51.17,137.77A6.44,6.44,0,0,0,53.68,139c1.13.28,2.57.21,2.93-1.27.68-2.71-5.55-3.59-4.39-8.25.75-3,3.38-3.63,6.21-2.92a9.77,9.77,0,0,1,2.75,1.3l-.68,1.84a8.51,8.51,0,0,0-2.76-1.42c-1.15-.29-2.93-.05-3.34,1.61-.79,3.16,5.5,3.8,4.4,8.19-.62,2.51-2.94,3.35-5.48,2.72a9.42,9.42,0,0,1-2.89-1.26Z"/><path class="cls-1" d="M42.27,136.84,35,133.14l.83-1.64,5.4,2.76,1.93-3.79L38.25,128l.83-1.63,4.93,2.5,2.17-4.27-5.4-2.75.83-1.64,7.26,3.7Z"/><path class="cls-1" d="M28.14,128.49l-1.6-1.34,8.16-9.76L30,113.48l1.18-1.4,6.27,5.24Z"/><path class="cls-1" d="M16.86,117.84l-4.93-6.48,1.46-1.11,3.67,4.83,3.39-2.58-3.35-4.39L18.56,107l3.35,4.4,3.81-2.9-3.67-4.83,1.46-1.11L28.44,109Z"/><path class="cls-1" d="M6,94.27a5.82,5.82,0,0,0,.46,3.08,5.39,5.39,0,0,0,7.45,2.83,5.43,5.43,0,0,0,3-7.3A7.34,7.34,0,0,0,15,90.26l1.8-.92a9,9,0,0,1,1.8,2.83c1.85,4.22.37,8.21-3.87,10.06s-8.14,0-9.92-4a8.08,8.08,0,0,1-.74-3.25Z"/><path class="cls-1" d="M3.14,84.88l.78,4.46-1.81.31L.2,78.68,2,78.37l.77,4.46,12.54-2.19.36,2.06Z"/><path class="cls-1" d="M0,72.42l.38-8.14,1.83.08-.28,6.07,4.25.19.26-5.52,1.83.09L8,70.71l4.79.22.28-6.06,1.84.09-.38,8.14Z"/><path class="cls-1" d="M1.61,56.21l1.29-4.1c1.29-4.11,4.87-6.6,9.15-5.25,4.65,1.46,6.17,5,4.73,9.62L15.5,60.57ZM14.37,58,15,56c1.07-3.42,0-5.83-3.57-7a5.07,5.07,0,0,0-6.74,3.45L4,54.77Z"/><path class="cls-1" d="M14.46,29l2.48-2.9c1.94-2.26,4.34-3.47,6.86-1.31s1.69,4.76,0,6.76l-1.33,1.55,4.42,3.79-1.35,1.58Zm6.6,2.91,1.34-1.57c.84-1,1.41-2.64,0-3.89s-3.15-.17-4,.82l-1.15,1.34Z"/><path class="cls-1" d="M30.2,13.67c3.62-2.54,7.58-1.39,10.05,2.15S42.47,23.45,38.83,26s-7.52,1.47-10.06-2.15S26.58,16.2,30.2,13.67ZM37.78,24.5c2.75-1.93,2.33-5,.66-7.42s-4.57-3.77-7.19-1.91-2.36,5-.66,7.42S35,26.42,37.78,24.5Z"/><path class="cls-1" d="M41.33,6.72l2.2-.63,6.8,11h0L49.9,4.26l2.85-.82,6.47,11.11,0,0-.1-12.94L61.28,1,61,16.2,58.42,17,51.85,5.6h0l.46,13.11-2.69.77Z"/><path class="cls-1" d="M67.84,1.05l3.16,0,5,.06L76,3,69.9,2.9l0,4.26,5.52.06,0,1.84L69.83,9l0,4.8,6.07.07,0,1.83-8.15-.09Z"/><path class="cls-1" d="M84.34,2.2l3.45.9c2.78.72,5.35,1.87,4.47,5.24a3.39,3.39,0,0,1-3.74,2.45v0a2.4,2.4,0,0,1,1,1.77l1.2,6.3-2.3-.6-.89-5.44c-.26-1.54-.93-1.71-2-2l-1.21-.32-1.63,6.26-2-.53Zm.44,6.58,1.72.45c1.91.49,3.26-.06,3.61-1.41S89.69,5.49,87.83,5L85.89,4.5Z"/><path class="cls-1" d="M110.05,12.67l3.14,2.38c2.4,1.83,3.47,3.87,1.84,6-1.21,1.6-2.74,1.69-4.48.94l0,0a3.41,3.41,0,0,1,.57,4.83c-1.89,2.49-4.41,1.52-6.76-.27l-3.09-2.34Zm-6.11,11.49,1.25.94c1.49,1.14,3.08,1.84,4.26.28,1.36-1.79,0-3.24-1.45-4.32l-1.08-.82Zm4-5.28.91.69c1.61,1.22,3.09,2.11,4.39.4,1-1.38.13-2.62-.83-3.35l-1.75-1.33Z"/><path class="cls-1" d="M127.11,28.34c2.72,3.49,1.77,7.5-1.64,10.15s-7.52,2.6-10.24-.91-1.85-7.44,1.64-10.15S124.4,24.85,127.11,28.34Zm-10.43,8.11c2.06,2.65,5.14,2.08,7.43.3s3.54-4.76,1.56-7.28-5.11-2.11-7.44-.3S114.62,33.8,116.68,36.45Z"/><path class="cls-1" d="M133.43,42.6l-1.86-4.12,1.67-.76,4.58,10.15-1.67.75-1.86-4.12L122.7,49.73l-.86-1.9Z"/><path class="cls-1" d="M140.32,57.45l.41,2.15-13.14,8.79-.43-2.23L130.49,64l-1.35-7-3.88-.77-.41-2.15Zm-1.74,1.38L131,57.34,132,63Z"/><path class="cls-1" d="M142,73.48l-.29,2.82L129.4,81.51v0l11.66,1.19-.21,2.07-14.48-1.47.27-2.66,12.57-5.34v0l-11.91-1.21.21-2.08Z"/><path class="cls-1" d="M138.58,93.09l-.66,2L124.1,90.53l.65-2Z"/><path class="cls-1" d="M128.08,110a5.81,5.81,0,0,0,2.17-2.23,5.69,5.69,0,0,0-9.89-5.63,7.24,7.24,0,0,0-.93,3.11l-1.83-.87a9.21,9.21,0,0,1,1.16-3.15c2.25-4,6.32-5.27,10.37-3s4.94,6.47,2.78,10.35a8,8,0,0,1-2.14,2.56Z"/><path class="cls-1" d="M121,122.13l-1.58,1.52-14.54-6.19,1.63-1.58,3.62,1.61,5.13-5-1.49-3.67,1.57-1.52Zm-2.1-.7-2.93-7.21-4.17,4Z"/><path class="cls-1" d="M108.74,132l-1.81,1-6.27-11.08-5.3,3-.9-1.59,7.11-4Z"/><path class="cls-1" d="M87.09,138.75a6.34,6.34,0,0,0,2.79-.19c1.12-.32,2.33-1.11,1.9-2.57-.78-2.68-6.6-.31-8-4.91-.87-3,1.09-4.83,3.89-5.65a9.65,9.65,0,0,1,3-.26l.34,1.92a8.83,8.83,0,0,0-3.1.17c-1.14.33-2.55,1.44-2.07,3.08.91,3.12,6.66.51,7.93,4.85.72,2.48-.85,4.38-3.37,5.11a9.68,9.68,0,0,1-3.13.37Z"/></svg>